# xmcd CD database file
# Copyright (C) 1995-1998 Ti Kan
#
# Track frame offsets:
#	150
#	20429
#	43258
#	62141
#	79507
#	96514
#	110876
#	125496
#	144763
#	156896
#	178282
#	193334
#	206590
#	221036
#
# Disc length: 3419 seconds
#
# Revision: 1
# Processed by: cddbd v1.4b41PL3 Copyright (c) Steve Scherf et al.
# Submitted via: CDex 1.30Release
#
DISCID=d70d590e
DTITLE=Doug Rowe - Havannah Street Blues
DYEAR=2000
DGENRE=Blues
TTITLE0=Hangin' On
TTITLE1=Riding the Wind
TTITLE2=The Long Black Veil
TTITLE3=Wildfire
TTITLE4=Brand New Boy
TTITLE5=We'll Sweep Out the Ashes in the Morning
TTITLE6=The Heartache is On
TTITLE7=A Tender Heart
TTITLE8=Little One
TTITLE9=Longshot Fool
TTITLE10=Common Ground
TTITLE11=Lines of Love
TTITLE12=Wauchope Timber Mill
TTITLE13=Great Southern Land
EXTD=YEAR: 2000 ID3G:   0
EXTT0=
EXTT1=
EXTT2=
EXTT3=
EXTT4=
EXTT5=
EXTT6=
EXTT7=
EXTT8=
EXTT9=
EXTT10=
EXTT11=
EXTT12=
EXTT13=
PLAYORDER=
